<?xml version="1.0" standalone="no"?>
<!DOCTYPE svg PUBLIC "-//W3C//DTD SVG 20010904//EN"
 "http://www.w3.org/TR/2001/REC-SVG-20010904/DTD/svg10.dtd">
<svg version="1.0" xmlns="http://www.w3.org/2000/svg"
 width="380.000000pt" height="380.000000pt" viewBox="0 0 380.000000 380.000000"
 preserveAspectRatio="xMidYMid meet">
<metadata>
Created by potrace 1.15, written by Peter Selinger 2001-2017
</metadata>
<g transform="translate(0.000000,380.000000) scale(0.100000,-0.100000)"
fill="#000000" stroke="none">
<path d="M1750 3434 c-434 -36 -655 -85 -864 -192 -266 -136 -299 -322 -85
-472 217 -152 616 -239 1099 -240 526 0 965 105 1151 277 141 131 129 261 -35
378 -213 150 -582 238 -1047 249 -96 2 -194 2 -219 0z"/>
<path d="M660 2416 c0 -225 4 -242 83 -320 102 -101 318 -190 587 -242 341
-65 809 -65 1151 1 256 49 477 138 580 235 81 76 89 104 89 328 0 133 -3 192
-11 192 -6 0 -23 -8 -37 -19 -47 -33 -184 -98 -272 -129 -431 -151 -1066 -179
-1600 -71 -162 33 -415 127 -505 188 -25 17 -50 31 -56 31 -5 0 -9 -78 -9
-194z"/>
<path d="M660 1693 c0 -231 6 -251 98 -333 140 -125 424 -218 802 -262 148
-17 541 -17 690 0 455 52 786 185 872 351 28 53 28 54 28 247 0 107 -3 194 -6
194 -4 0 -32 -15 -63 -34 -217 -131 -484 -203 -885 -241 -319 -30 -676 -9
-994 60 -166 36 -396 125 -497 194 -16 12 -33 21 -37 21 -5 0 -8 -89 -8 -197z"/>
<path d="M3097 1145 c-20 -14 -67 -40 -104 -59 -583 -289 -1726 -269 -2253 40
-32 18 -63 34 -69 34 -8 0 -11 -61 -11 -193 0 -189 1 -194 26 -246 64 -129
302 -246 629 -310 197 -38 293 -46 590 -46 354 0 530 21 771 91 184 53 292
106 381 188 87 80 93 97 93 323 0 105 -4 194 -8 197 -5 3 -25 -6 -45 -19z"/>
</g>
</svg>
