<?xml version="1.0" standalone="no"?>
<!DOCTYPE svg PUBLIC "-//W3C//DTD SVG 20010904//EN"
 "http://www.w3.org/TR/2001/REC-SVG-20010904/DTD/svg10.dtd">
<svg version="1.0" xmlns="http://www.w3.org/2000/svg"
 width="2000.000000pt" height="2000.000000pt" viewBox="0 0 2000.000000 2000.000000"
 preserveAspectRatio="xMidYMid meet">
<metadata>
Created by potrace 1.15, written by Peter Selinger 2001-2017
</metadata>
<g transform="translate(0.000000,2000.000000) scale(0.100000,-0.100000)"
fill="#000000" stroke="none">
<path d="M10690 18893 c-484 -29 -1146 -154 -1699 -320 l-153 -46 -87 16 c-48
9 -95 17 -104 17 -15 0 -17 -25 -17 -270 0 -232 2 -270 15 -270 8 0 59 14 112
31 92 30 102 31 161 21 51 -8 72 -8 105 4 133 47 258 65 452 65 341 0 756 -95
1174 -269 137 -57 496 -241 616 -316 706 -444 1153 -975 1241 -1477 32 -186 4
-389 -75 -547 -110 -219 -135 -501 -67 -756 l23 -87 -91 -53 c-256 -151 -586
-452 -1050 -956 -389 -424 -859 -933 -1012 -1095 -72 -77 -155 -168 -185 -202
-168 -193 -973 -1052 -1563 -1668 -421 -438 -1451 -1476 -1836 -1849 -890
-861 -1295 -1205 -2040 -1731 -686 -484 -968 -718 -1625 -1346 -550 -525 -825
-853 -988 -1175 -64 -127 -127 -359 -127 -470 0 -37 -3 -44 -22 -49 -449 -102
-650 -156 -943 -252 -276 -90 -497 -178 -718 -285 l-187 -92 2 -905 3 -906
155 -77 c1347 -672 3961 -1012 6475 -843 1817 123 3364 496 4177 1009 l107 67
58 -10 c32 -6 148 -21 258 -35 1256 -159 2668 -175 3960 -45 2009 201 3437
728 3625 1337 25 79 26 197 4 273 -129 441 -917 853 -2139 1119 -55 12 -107
23 -115 26 -12 3 -19 -10 -29 -58 -97 -481 -487 -936 -963 -1126 -515 -205
-1137 -142 -1605 163 -96 63 -137 103 -809 789 l-499 508 -130 -6 c-1018 -52
-1917 -174 -2668 -362 -346 -87 -561 -155 -913 -291 -39 -15 -48 -14 -270 30
-576 116 -1191 200 -1864 253 -113 8 -206 16 -207 17 -1 1 19 29 44 62 24 33
124 173 221 310 479 682 800 1073 1415 1727 405 431 1419 1447 2072 2076 531
511 1356 1292 1451 1373 60 51 311 281 529 484 195 183 731 678 1110 1026 299
275 578 556 736 742 124 145 201 258 271 395 63 122 63 123 93 117 239 -51
437 -45 694 20 343 87 569 -34 971 -520 50 -60 110 -134 132 -163 l41 -53 -40
-42 c-222 -230 -301 -560 -212 -887 29 -109 119 -282 194 -375 200 -249 494
-394 801 -395 162 0 288 27 414 90 127 64 129 66 1119 1075 189 193 364 377
389 410 302 407 193 1018 -242 1349 -186 142 -374 207 -601 209 -123 1 -193
-9 -303 -45 -35 -11 -67 -16 -72 -12 -44 49 -159 202 -220 295 -85 129 -168
285 -258 490 -214 483 -413 787 -808 1234 -183 207 -2329 2347 -2474 2467
-755 624 -1597 961 -2589 1038 -122 9 -665 11 -801 3z m823 -428 c862 -76
1567 -356 2237 -889 94 -75 402 -376 1258 -1230 624 -622 1189 -1194 1256
-1271 347 -397 520 -662 711 -1090 149 -334 257 -520 435 -754 78 -103 336
-401 359 -415 5 -3 46 22 92 55 108 79 186 116 276 129 178 28 359 -43 501
-194 136 -145 198 -339 163 -508 -28 -134 -24 -129 -710 -829 -351 -358 -660
-666 -686 -685 -133 -94 -345 -100 -520 -13 -237 116 -388 380 -355 619 18
136 53 189 258 394 l180 179 -127 151 c-69 83 -181 219 -248 301 -384 475
-645 674 -973 740 -134 27 -328 17 -490 -26 -115 -30 -137 -33 -275 -33 -142
0 -155 2 -245 32 -110 37 -209 90 -308 164 -55 42 -995 938 -1377 1314 -117
115 -176 268 -176 459 -1 123 11 179 60 275 44 85 81 198 108 321 27 127 24
399 -6 539 -59 278 -180 530 -389 810 -109 146 -412 450 -584 587 -419 333
-952 620 -1453 784 -72 23 -134 45 -138 49 -8 7 133 24 323 39 171 14 664 12
843 -4z m1236 -4267 c981 -951 1211 -1169 1305 -1238 47 -34 86 -65 86 -68 0
-21 -98 -201 -145 -267 -146 -203 -427 -496 -865 -899 -2538 -2336 -4348
-4081 -5285 -5096 -552 -598 -858 -975 -1300 -1605 -412 -586 -647 -871 -1198
-1453 -548 -579 -869 -855 -1147 -986 -125 -59 -205 -79 -315 -80 -133 -1
-248 44 -363 141 l-52 45 -78 -70 -77 -70 -68 62 c-37 33 -67 66 -67 71 0 6
16 21 36 34 41 28 126 39 173 23 17 -6 31 -10 31 -9 0 1 -205 207 -455 457
-411 411 -453 450 -439 409 10 -28 13 -58 9 -84 -6 -41 -49 -125 -64 -125 -10
0 -131 128 -131 138 1 4 32 41 69 82 l69 74 -44 50 c-53 61 -106 159 -129 240
-23 79 -16 225 15 316 90 264 288 529 725 965 674 675 1086 1025 1780 1515
348 246 494 354 720 535 518 414 953 814 1748 1605 1104 1096 2502 2567 4228
4445 383 417 688 711 883 850 77 54 184 114 205 115 8 0 71 -55 140 -122z"/>
<path d="M12270 17694 c161 -130 402 -362 512 -494 172 -204 334 -483 412
-709 82 -234 116 -430 116 -661 0 -232 -36 -435 -114 -635 -19 -51 -31 -94
-26 -100 5 -6 14 -48 20 -95 6 -47 14 -96 17 -109 7 -28 1275 -1171 1384
-1247 131 -92 173 -109 264 -108 62 0 107 8 200 36 175 52 249 63 430 62 226
0 406 -38 617 -128 338 -145 554 -331 1009 -866 58 -69 188 -215 289 -325 100
-110 191 -210 202 -221 19 -21 19 -21 -261 -322 -154 -166 -283 -312 -287
-326 -9 -38 4 -65 60 -124 58 -61 92 -82 135 -82 27 0 86 61 584 603 682 742
640 693 632 726 -3 14 -15 37 -26 51 -11 14 -27 37 -36 51 -25 39 -75 69 -115
69 -30 0 -66 -24 -261 -175 -124 -96 -230 -175 -235 -175 -13 0 -491 496 -601
624 -233 272 -367 479 -578 891 -156 303 -243 447 -370 610 -99 127 -299 349
-444 492 -192 188 -2099 1982 -2145 2017 -22 17 -89 70 -149 118 -333 268
-699 456 -1181 608 -207 65 -206 66 -54 -56z"/>
</g>
</svg>
